<svg width="512" height="512" viewBox="0 0 512 512" fill="none" xmlns="http://www.w3.org/2000/svg">
<path d="M128 0C110.4 0 96 14.4 96 32V480C96 497.6 110.4 512 128 512H448C465.6 512 480 497.6 480 480V128L352 0H128Z" fill="#E2E5E7"/>
<path d="M384 128H480L352 0V96C352 113.6 366.4 128 384 128Z" fill="#B0B7BD"/>
<path d="M480 224L384 128H480V224Z" fill="#CAD1D8"/>
<path d="M416 416C416 424.8 408.8 432 400 432H48C39.2 432 32 424.8 32 416V256C32 247.2 39.2 240 48 240H400C408.8 240 416 247.2 416 256V416Z" fill="#A066AA"/>
<path d="M110.944 303.152C110.944 292.656 127.84 292.272 127.84 303.152V376.176C127.84 386.8 110.944 387.056 110.944 376.176V303.152Z" fill="white"/>
<path d="M173.688 327.84V375.168C173.688 380.816 169.08 384 164.488 384C160.392 384 156.808 380.816 156.808 375.168V303.152C156.808 296.496 162.456 294.304 164.488 294.304C168.184 294.304 170.36 296.496 172.536 298.928L200.696 336.912L229.848 297.504C234.088 292.272 244.44 294.304 244.44 303.152V375.168C244.44 380.816 240.84 384 236.76 384C232.168 384 228.568 380.816 228.568 375.168V327.84L207.336 354.704C202.744 360.352 196.984 360.352 192.76 354.704L173.688 327.84Z" fill="white"/>
<path d="M342.576 374.16C333.488 381.712 322.352 384.912 311.104 384.912C284.224 384.912 265.168 369.568 265.168 339.104C265.168 313.28 285.264 293.2 312.24 293.2C322.352 293.2 333.472 296.64 341.408 304.448C349.2 312.112 337.952 323.504 330.288 316.736C325.552 312.128 318.896 308.672 312.24 308.672C296.768 308.672 281.808 321.072 281.808 339.104C281.808 358.048 294.336 369.568 311.104 369.568C318.896 369.568 325.552 367.248 330.288 363.808V348.08H311.104C299.712 348.08 300.864 332.464 311.104 332.464H336.688C341.424 332.464 345.76 336.048 345.76 340.016V367.264C345.76 369.568 344.752 371.712 342.576 374.16Z" fill="white"/>
<path d="M400 432H96V448H400C408.8 448 416 440.8 416 432V416C416 424.8 408.8 432 400 432Z" fill="#CAD1D8"/>
</svg>
